<svg xmlns="http://www.w3.org/2000/svg" viewBox="0 0 367.912 154.971"><path d="M194.5 121.171l-.156-26.813h7.474v38.678h-6.899l-17.822-26.761.156 26.761h-7.474V94.357h6.951l17.77 26.814zm16.298-.209c.313 4.599 4.391 7.161 8.311 7.108 3.345 0 5.592-1.514 6.898-3.866h7.057c-1.359 3.188-3.396 5.592-5.801 7.212-2.406 1.672-5.228 2.508-8.207 2.508-8.834 0-15.158-7.16-15.158-15.158 0-8.151 6.377-15.314 15.054-15.314 4.286 0 8.049 1.62 10.716 4.391 3.5 3.607 4.807 8.104 4.232 13.12h-23.102zm16.36-5.228c-.261-2.718-3.136-6.533-8.153-6.479-5.07 0-7.841 3.657-8.102 6.479h16.255zm11.598-6.115H234v-5.278h4.756v-9.983h6.848v9.983h4.912v5.278h-4.912v23.416h-6.848v-23.416zm12.395-5.278h7.109l5.697 19.966 5.488-19.025h5.801l5.592 19.025 5.594-19.966h7.109l-9.201 28.694h-6.428l-5.645-19.393-5.488 19.393h-6.43l-9.198-28.694zm41.078 14.268c0-7.317 5.385-15.105 15.369-15.105 9.982 0 15.365 7.788 15.365 15.157 0 7.422-5.383 15.209-15.365 15.209-9.984 0-15.369-7.787-15.369-15.209v-.052zm6.849.105c0 5.018 3.814 8.729 8.52 8.729 4.703 0 8.465-3.711 8.465-8.781 0-5.069-3.762-8.781-8.465-8.781-4.705 0-8.52 3.712-8.52 8.781v.052zm25.913-14.373h6.48v3.762c1.254-2.561 3.607-4.599 7.945-4.651v6.899h-.315c-4.809 0-7.264 2.248-7.264 7.213v15.472h-6.848v-28.695zm16.564-9.984h6.844v20.907l9.879-10.924h8.207l-11.918 12.648 11.969 16.046h-7.838l-10.299-14.321v14.321h-6.844V94.357zm-53.822-46.848h8.588l6.32 15.07 6.807-15.07h8.428L298.59 88.184h-8.316l8.75-18.204-11.291-22.471zm-36.485 33.555V47.605h6.578v1.851c.377-.287.793-.529 1.301-.807 1.793-.973 3.611-1.048 5.805-1.048h1.795l-.004 6.342-.734-.081s-.213-.021-.57-.021c-1.051 0-3.092.187-4.943 1.471-1.08.749-1.562 1.881-1.928 2.994-.33 1.005-.498 2.433-.498 4.231v18.527h-6.802zm18.028 0V47.605h6.576v1.851c.379-.287.799-.529 1.303-.807 1.797-.973 3.615-1.048 5.809-1.048h1.541l3.197 6.321-1.15-.068c-.006 0-.406-.028-1.033-.028-1.463 0-5.084.147-7.014 1.485-1.082.749-1.565 1.881-1.93 2.994-.324 1.005-.5 2.433-.5 4.231v18.527h-6.799zM230.559 53.45c-6.048 0-10.968 4.919-10.968 10.964 0 6.049 4.92 10.97 10.968 10.97 6.041 0 10.961-4.921 10.961-10.97 0-6.045-4.92-10.964-10.961-10.964m-.111 28.311c-9.65 0-17.496-7.852-17.496-17.499 0-9.654 7.846-17.499 17.496-17.499 4.074 0 7.955 1.392 11.072 3.951v-3.109h6.578v33.459h-6.578v-3.255a17.399 17.399 0 0 1-11.072 3.952m-60.669-1V42.375h10.425l9.856 27.542 9.698-27.542h10.478v38.386h-7.158l.208-30.758-10.737 30.758h-5.084l-10.788-30.758.206 30.758h-7.104z" fill="#6f8288"/><linearGradient id="a" gradientUnits="userSpaceOnUse" x1="80.772" y1="61.657" x2="80.38" y2="5.228"><stop offset=".303" stop-color="#f27ea5"/><stop offset=".41" stop-color="#f1739c"/><stop offset=".749" stop-color="#ef4f83"/><stop offset=".927" stop-color="#ee3e7b"/></linearGradient><path d="M100.981 67.379c-6.793-8.51-.359-20.375 5.484-29.709 3.521-5.618 5.643-10.202 6.498-14.017 1.152-5.186-.393-10.811-4.144-15.048-2.559-2.911-4.507-4.095-6.222-4.942-1.674-.814-4.439-1.786-6.761-1.827-.075-.001-.157-.004-.241.001-4.854.047-8.415 1.682-11.552 5.284a66.607 66.607 0 0 0-2.697 3.332 22.055 22.055 0 0 0-3.434-4.072c-3.517-3.226-7.901-5.316-12.03-5.728a12.995 12.995 0 0 0-1.121-.07C60.62.505 56.233 2.3 53.03 5.37c-5.629 5.393-6.935 14.22-3.584 24.231 2.268 6.768 6.618 16.196 14.494 22.64 1.373 1.133 2.723 1.904 4.282 2.798.687.396 1.409.811 2.187 1.292-5.866-5.292-8.861-14.255-11.166-21.699-1.102-3.55-3.385-12.371-.257-20.309 1.978-5.033 4.995-7.34 9.488-7.26 2.15.044 3.806.732 5.245 2.162 2.244 2.234 3.656 4.149 4.423 6a41.406 41.406 0 0 0-2.354 4.554c-1.207 2.755-3.459 7.88-.197 10.597.322.268 1.414.94 3.188 2.018 1.329.812 2.843 1.732 3.209 2.02l.855.652.498-.945c1.986-3.779 2.641-8.593 1.842-13.576.548-1.423 1.326-3.199 2.515-4.824 1.806-2.462 5.039-5.287 7.515-6.563a5.372 5.372 0 0 1 2.543-.611c1.814.038 3.588 1.044 5.135 2.919 1.331 1.619 1.822 4.545 1.322 7.826-.43 2.812-3.018 7.633-5.765 12.737-2.351 4.382-4.785 8.902-6.306 12.933-1.707 4.531-.698 10.137 1.047 13.691 1.045 2.118 3.947 4.945 6.061 7.004.712.688 1.33 1.284 1.731 1.722" fill="url(#a)"/><linearGradient id="b" gradientUnits="userSpaceOnUse" x1="-211.093" y1="835.228" x2="-211.485" y2="778.8" gradientTransform="rotate(-72.002 -596.903 264.38)"><stop offset=".334" stop-color="#dc8bbb"/><stop offset=".834" stop-color="#b43e97"/></linearGradient><path d="M76.911 56.386c-10.192 3.831-19.488-5.955-26.561-14.398-4.256-5.086-7.959-8.518-11.322-10.51-4.576-2.699-10.402-2.967-15.592-.711-3.559 1.535-5.287 3.022-6.623 4.391-1.292 1.34-3.07 3.67-3.826 5.865-.025.072-.053.149-.074.23-1.457 4.631-1.001 8.522 1.455 12.619a66.641 66.641 0 0 0 2.337 3.596 21.962 21.962 0 0 0-4.935 2.006c-4.154 2.348-7.498 5.873-9.167 9.672-.151.337-.287.689-.413 1.045-1.352 3.912-1.002 8.641.928 12.634 3.391 7.021 11.381 10.991 21.939 10.897 7.137-.065 17.449-1.289 26.011-6.787 1.502-.958 2.651-2.002 3.983-3.21.59-.53 1.207-1.089 1.906-1.68-6.848 3.944-16.297 4.022-24.09 3.913-3.717-.049-12.811-.604-19.394-6.031-4.177-3.436-5.438-7.02-3.974-11.266.707-2.031 1.873-3.395 3.679-4.322 2.817-1.441 5.075-2.195 7.073-2.352a41.323 41.323 0 0 0 3.604 3.646c2.245 1.999 6.426 5.725 10.016 3.463.354-.225 1.331-1.056 2.906-2.409 1.181-1.014 2.524-2.169 2.911-2.429l.885-.611-.745-.765c-2.982-3.057-7.357-5.167-12.344-5.948-1.184-.96-2.633-2.25-3.811-3.882-1.783-2.479-3.472-6.427-3.92-9.175a5.409 5.409 0 0 1 .203-2.607c.598-1.713 2.102-3.089 4.363-3.981 1.951-.766 4.887-.329 7.852 1.161 2.543 1.276 6.328 5.229 10.334 9.418 3.439 3.592 6.988 7.303 10.35 9.994 3.783 3.023 9.426 3.796 13.346 3.236 2.338-.34 5.924-2.227 8.533-3.602.878-.462 1.636-.863 2.177-1.11" fill="url(#b)"/><linearGradient id="c" gradientUnits="userSpaceOnUse" x1="-1036.153" y1="797.202" x2="-1036.545" y2="740.773" gradientTransform="rotate(-143.998 -596.581 264.758)"><stop offset=".459" stop-color="#f0bc63"/><stop offset=".887" stop-color="#eea32d"/></linearGradient><path d="M59.016 75.881c.495 10.877-11.684 16.695-21.899 20.812-6.152 2.476-10.56 4.938-13.496 7.52-3.98 3.518-6.036 8.977-5.493 14.609.359 3.859 1.241 5.962 2.13 7.656.875 1.642 2.541 4.053 4.394 5.451.062.045.126.096.195.141 3.955 2.816 7.797 3.586 12.453 2.516a66.706 66.706 0 0 0 4.141-1.111 21.995 21.995 0 0 0 .383 5.313c.949 4.677 3.268 8.945 6.366 11.706.274.25.567.486.865.717 3.304 2.494 7.91 3.623 12.304 3.021 7.725-1.055 13.969-7.428 17.143-17.498 2.144-6.808 4.166-16.992 1.582-26.835-.446-1.726-1.084-3.141-1.82-4.781-.321-.724-.662-1.483-1.009-2.331 1.634 7.731-1.21 16.742-3.722 24.12-1.195 3.52-4.533 11.997-11.73 16.58-4.559 2.91-8.355 3.002-11.942.298-1.714-1.3-2.648-2.83-2.974-4.834-.501-3.125-.521-5.506-.051-7.453a41.57 41.57 0 0 0 4.581-2.301c2.595-1.518 7.432-4.342 6.387-8.455-.102-.406-.59-1.592-1.392-3.508-.598-1.438-1.281-3.072-1.408-3.52l-.309-1.031-.957.473c-3.83 1.893-7.189 5.4-9.473 9.9-1.277.83-2.951 1.809-4.869 2.426-2.908.931-7.184 1.315-9.936.892a5.39 5.39 0 0 1-2.417-.997c-1.445-1.098-2.289-2.955-2.439-5.382-.125-2.092 1.199-4.749 3.531-7.108 2-2.023 6.929-4.402 12.15-6.916 4.479-2.163 9.104-4.39 12.703-6.757 4.046-2.663 6.523-7.791 7.202-11.69.399-2.328-.288-6.322-.788-9.23-.169-.978-.318-1.823-.386-2.413" fill="url(#c)"/><linearGradient id="d" gradientUnits="userSpaceOnUse" x1="-1255.562" y1=".354" x2="-1255.954" y2="-56.075" gradientTransform="rotate(143.998 -596.745 264.905)"><stop offset=".279" stop-color="#c0dd96"/><stop offset=".372" stop-color="#b6d886"/><stop offset=".685" stop-color="#99cb50"/><stop offset=".83" stop-color="#8dc63f"/></linearGradient><path d="M72.029 98.924c10.497 2.891 12.268 16.271 13.026 27.258.452 6.616 1.432 11.569 2.982 15.159 2.115 4.874 6.67 8.516 12.195 9.739 3.781.85 6.055.662 7.939.34 1.832-.323 4.64-1.164 6.543-2.495.062-.044.129-.089.195-.142 3.898-2.892 5.819-6.308 6.238-11.066.122-1.449.197-2.883.224-4.281a21.97 21.97 0 0 0 5.171 1.277c4.742.543 9.519-.344 13.102-2.438.322-.184.639-.389.948-.602 3.395-2.371 5.891-6.402 6.677-10.767 1.383-7.673-2.748-15.581-11.344-21.711-5.812-4.144-14.875-9.212-25.033-9.798-1.778-.107-3.322.061-5.11.254-.788.082-1.614.173-2.528.239 7.857.835 15.548 6.325 21.789 10.993 2.979 2.225 10.01 8.02 12.145 16.279 1.359 5.234.273 8.875-3.408 11.449-1.766 1.229-3.51 1.645-5.516 1.336-3.127-.49-5.397-1.207-7.104-2.256a42.163 42.163 0 0 0-.771-5.068c-.643-2.936-1.834-8.408-6.07-8.688-.418-.027-1.696.07-3.766.24-1.553.125-3.317.271-3.783.252l-1.074-.023.152 1.056c.617 4.228 2.915 8.507 6.49 12.067.393 1.473.808 3.367.801 5.381-.014 3.055-.968 7.238-2.222 9.727a5.408 5.408 0 0 1-1.696 1.99c-1.49 1.035-3.518 1.264-5.871.656-2.028-.527-4.146-2.607-5.67-5.555-1.307-2.527-2.045-7.949-2.822-13.693-.674-4.926-1.362-10.014-2.5-14.17-1.283-4.67-5.395-8.611-8.895-10.461-2.092-1.1-6.101-1.68-9.021-2.103-.981-.138-1.831-.258-2.413-.375" fill="url(#d)"/><linearGradient id="e" gradientUnits="userSpaceOnUse" x1="-565.038" y1="-454.972" x2="-565.43" y2="-511.398" gradientTransform="rotate(72.002 -597.052 264.556)"><stop offset=".268" stop-color="#71cfec"/><stop offset=".442" stop-color="#61c4e7"/><stop offset=".77" stop-color="#26afdb"/></linearGradient><path d="M97.964 93.669c5.993-9.091 19.267-6.64 29.95-3.966 6.432 1.614 11.445 2.214 15.338 1.85 5.289-.507 10.16-3.714 13.033-8.592 1.975-3.332 2.499-5.553 2.775-7.445.258-1.842.326-4.771-.352-6.992-.023-.074-.045-.152-.074-.229-1.545-4.603-4.201-7.484-8.598-9.354a66.64 66.64 0 0 0-4.003-1.535 21.992 21.992 0 0 0 2.814-4.523c1.981-4.341 2.615-9.157 1.732-13.212a14.155 14.155 0 0 0-.281-1.089c-1.205-3.961-4.269-7.58-8.176-9.677-6.871-3.686-15.668-2.2-24.154 4.081-5.736 4.246-13.359 11.299-17.054 20.779-.651 1.657-.97 3.178-1.337 4.938-.166.775-.336 1.59-.555 2.479 3.223-7.216 10.82-12.833 17.188-17.325 3.037-2.146 10.721-7.043 19.236-6.52 5.398.324 8.525 2.481 9.836 6.779.623 2.059.479 3.846-.436 5.658-1.432 2.822-2.815 4.758-4.34 6.059a41.548 41.548 0 0 0-5.059-.832c-2.99-.297-8.563-.855-10.137 3.088-.155.389-.458 1.636-.936 3.655-.361 1.516-.768 3.238-.93 3.677l-.355 1.014 1.053.182c4.209.72 8.99-.145 13.482-2.442 1.523.08 3.451.271 5.364.9 2.9.956 6.585 3.157 8.563 5.119a5.398 5.398 0 0 1 1.369 2.228c.523 1.736.113 3.734-1.19 5.787-1.129 1.766-3.761 3.138-7.034 3.676-2.809.461-8.192-.512-13.895-1.549-4.895-.881-9.947-1.798-14.25-1.999-4.837-.224-9.857 2.469-12.698 5.226-1.691 1.648-3.483 5.283-4.788 7.93-.432.887-.809 1.659-1.101 2.176" fill="url(#e)"/></svg>